<?xml version="1.0" encoding="UTF-8"?>
<svg width="352px" height="250px" viewBox="0 0 352 250" version="1.1" xmlns="http://www.w3.org/2000/svg" xmlns:xlink="http://www.w3.org/1999/xlink">
    <!-- Generator: Sketch 46.2 (44496) - http://www.bohemiancoding.com/sketch -->
    <title>Analytics_emptyscreen illustration</title>
    <desc>Created with Sketch.</desc>
    <defs></defs>
    <g id="Page-1" stroke="none" stroke-width="1" fill="none" fill-rule="evenodd">
        <g id="Analytics_emptyscreen-illustration" transform="translate(-3.000000, -2.000000)">
            <g id="Group-3" opacity="0.420742754" transform="translate(152.000000, 0.000000)">
                <g id="Rectangle-2" transform="translate(103.000194, 126.996296) rotate(6.000000) translate(-103.000194, -126.996296) translate(12.000194, 8.996296)">
                    <g id="path-1-link" fill="#FFFFFF">
                        <rect id="path-1" x="0.984252" y="0.09641873" width="180.102362" height="235.807163" rx="24"></rect>
                    </g>
                    <rect id="Rectangle-path" stroke="#B1D4FD" stroke-width="8" x="4.984252" y="4.0964187" width="172.102362" height="227.807163" rx="24"></rect>
                </g>
                <g id="Rectangle-3" transform="translate(107.993582, 101.542580) rotate(6.000000) translate(-107.993582, -101.542580) translate(49.993582, 36.042580)">
                    <g id="path-2-link" fill="#FFFFFF">
                        <rect id="path-2" x="0.1259843" y="0.3856749" width="114.929134" height="130.14876" rx="3"></rect>
                    </g>
                    <rect id="Rectangle-path" stroke="#B1D4FD" stroke-width="5" x="2.6259843" y="2.8856749" width="109.929134" height="125.14876" rx="3"></rect>
                </g>
                <g id="Rectangle-3-Copy" transform="translate(105.980734, 112.479183) rotate(6.000000) translate(-105.980734, -112.479183) translate(47.980734, 57.979183)">
                    <g id="path-3-link" fill="#FFFFFF">
                        <rect id="path-3" x="0.7244094" y="0.077135" width="114.929134" height="108.4573" rx="3"></rect>
                    </g>
                    <rect id="Rectangle-path" stroke="#B1D4FD" stroke-width="5" x="3.2244094" y="2.577135" width="109.929134" height="103.4573" rx="3"></rect>
                </g>
                <g id="Rectangle-3-Copy-2" transform="translate(105.019856, 124.023324) rotate(6.000000) translate(-105.019856, -124.023324) translate(47.019856, 81.023324)">
                    <g id="path-4-link" fill="#FFFFFF">
                        <rect id="path-4" x="0.3228346" y="0.8677686" width="114.929134" height="84.6666667"></rect>
                    </g>
                    <rect id="Rectangle-path" stroke="#B1D4FD" stroke-width="5" x="2.8228346" y="3.3677686" width="109.929134" height="79.6666667"></rect>
                </g>
                <g id="Rectangle-3-Copy-3" transform="translate(103.027742, 138.961013) rotate(6.000000) translate(-103.027742, -138.961013) translate(45.027742, 110.961013)">
                    <g id="path-5-link" fill="#FFFFFF">
                        <rect id="path-5" x="0.9212598" y="0.955923" width="114.929134" height="54.5785124"></rect>
                    </g>
                    <rect id="Rectangle-path" stroke="#B1D4FD" stroke-width="5" x="3.4212598" y="3.455923" width="109.929134" height="49.5785124"></rect>
                </g>
                <g id="Rectangle-3-Copy-4" transform="translate(103.027742, 138.961013) rotate(6.000000) translate(-103.027742, -138.961013) translate(45.027742, 110.961013)">
                    <g id="path-6-link" fill="#FFFFFF">
                        <rect id="path-6" x="0.9212598" y="0.955923" width="114.929134" height="54.5785124"></rect>
                    </g>
                    <rect id="Rectangle-path" stroke="#B1D4FD" stroke-width="5" x="3.4212598" y="3.455923" width="109.929134" height="49.5785124"></rect>
                </g>
            </g>
            <path d="M323.390323,45.3680134 L210.666992,33.1669922" id="Path-6" stroke="#DFEDFF" stroke-width="5"></path>
            <g id="Group" transform="translate(0.000000, 22.981716)">
                <g id="Rectangle" transform="translate(128.044459, 102.506621) rotate(-8.000000) translate(-128.044459, -102.506621) translate(11.044459, 16.006621)">
                    <g id="path-8-link" fill="#FFFFFF">
                        <rect id="path-8" x="0.8653919" y="0.1192949" width="232.40836" height="172.132231" rx="22"></rect>
                    </g>
                    <rect id="Rectangle-path" stroke="#B1D5FE" stroke-width="8" x="4.8653919" y="4.1192949" width="224.40836" height="164.132231" rx="22"></rect>
                </g>
                <ellipse id="Oval" stroke="#B1D4FD" stroke-width="6" stroke-linecap="round" cx="54.9606299" cy="71.4810935" rx="20.3228346" ry="20.292011"></ellipse>
                <path d="M54.9606299,91.7731045 C66.1846216,91.7731045 75.2834646,82.6880617 75.2834646,71.4810935 C75.2834646,60.2741253 66.1846216,51.1890825 54.9606299,51.1890825 C43.7366383,51.1890825 34.6377953,60.2741253 34.6377953,71.4810935" id="Oval-Copy-3" stroke="#1D85FF" stroke-width="6" stroke-linecap="round"></path>
                <ellipse id="Oval-Copy" stroke="#B1D4FD" stroke-width="6" stroke-linecap="round" cx="61.6181102" cy="118.012774" rx="11.5629921" ry="11.5454545"></ellipse>
                <path d="M73.1811024,118.012774 C73.1811024,111.636395 68.0041744,106.467319 61.6181102,106.467319 C55.232046,106.467319 50.0551181,111.636395 50.0551181,118.012774 C50.0551181,124.389152 55.232046,129.558228 61.6181102,129.558228 L61.6181102,129.558228" id="Oval-Copy-4" stroke="#1D85FF" stroke-width="6" stroke-linecap="round"></path>
                <ellipse id="Oval-Copy-2" stroke="#B1D4FD" stroke-width="6" stroke-linecap="round" cx="67.2244094" cy="155.098173" rx="11.5629921" ry="11.5454545"></ellipse>
                <path d="M67.2244094,166.643628 C73.6104737,166.643628 78.7874016,161.474552 78.7874016,155.098173 C78.7874016,148.721795 73.6104737,143.552719 67.2244094,143.552719" id="Oval-Copy-5" stroke="#1D85FF" stroke-width="6" stroke-linecap="round"></path>
                <path d="M126.13435,92.024568 L204.778574,80.9355744" id="Path-2" stroke="#B1D4FD" stroke-width="6" stroke-linecap="round"></path>
                <path d="M127.84252,40.1326075 L134.244328,84.9561627" id="Path-3" stroke="#B1D5FE" stroke-width="6" stroke-linecap="round"></path>
                <path d="M148.165354,36.6339849 L154.567163,81.4575401" id="Path-3-Copy" stroke="#B1D5FE" stroke-width="6" stroke-linecap="round"></path>
                <path d="M168.488189,33.8350868 L174.889997,78.6586421" id="Path-3-Copy-2" stroke="#B1D4FD" stroke-width="6" stroke-linecap="round"></path>
                <path d="M188.638687,31.3886707 L195.040496,76.2122259" id="Path-3-Copy-3" stroke="#B1D4FD" stroke-width="6" stroke-linecap="round"></path>
                <path d="M131.828248,67.26088 L134.244328,84.9561627" id="Path-3-Copy-7" stroke="#1D85FF" stroke-width="6" stroke-linecap="round"></path>
                <path d="M150.180768,50.835786 L154.567163,81.6939705" id="Path-3-Copy-6" stroke="#1D85FF" stroke-width="6" stroke-linecap="round"></path>
                <path d="M173.084711,66.2018975 L174.889997,78.6586421" id="Path-3-Copy-5" stroke="#1D85FF" stroke-width="6" stroke-linecap="round"></path>
                <path d="M191.186532,49.140902 L195.040496,76.2122259" id="Path-3-Copy-4" stroke="#1D85FF" stroke-width="6" stroke-linecap="round"></path>
                <polyline id="Path-4" stroke="#B1D4FD" stroke-width="6" stroke-linecap="round" points="128.051243 107.750894 135.213786 157.495812 216.677491 146.23631"></polyline>
                <polyline id="Path-5" stroke="#1D85FF" stroke-width="6" stroke-linecap="round" points="145.718572 144.629984 162.137409 123.720073 182.649524 135.098562 201.559801 124.182185 205.79026 102.324528"></polyline>
            </g>
        </g>
    </g>
</svg>