<?xml version="1.0" encoding="UTF-8"?>
<svg width="46px" height="52px" viewBox="0 0 46 52" version="1.1" xmlns="http://www.w3.org/2000/svg" xmlns:xlink="http://www.w3.org/1999/xlink">
    <!-- Generator: Sketch 43.2 (39069) - http://www.bohemiancoding.com/sketch -->
    <title>pictures</title>
    <desc>Created with Sketch.</desc>
    <defs></defs>
    <g id="Page-1" stroke="none" stroke-width="1" fill="none" fill-rule="evenodd">
        <g id="Artboard" transform="translate(-121.000000, -43.000000)" fill-rule="nonzero">
            <g id="pictures" transform="translate(121.000000, 43.000000)">
                <path d="M1,9 C1,7.895 1.896,7 3,7 L6.56,7 C7.42,7 8.183,6.45 8.455,5.634 L9.545,2.365 C9.817,1.55 10.58,1 11.44,1 L20.561,1 C21.421,1 22.184,1.55 22.456,2.366 L23.544,5.631 C23.816,6.446 24.579,6.996 25.438,6.997 L43,7 C44.105,7 45,7.896 45,9 L45,13 L1,13 L1,9 Z" id="Shape" fill="#FFE88A"></path>
                <circle id="Oval" fill="#24B6FF" cx="20" cy="37" r="3"></circle>
                <path d="M44,6.175 L44,5 C44,3.346 42.654,2 41,2 L23.383,2 C22.96,0.802 21.835,0 20.56,0 L11.439,0 C10.164,0 9.039,0.803 8.617,2 L5,2 C3.346,2 2,3.346 2,5 L2,6.175 C0.837,6.588 0,7.697 0,9 L0,13 L0,14 L0,41 C0,42.654 1.346,44 3,44 L9,44 L9,49 C9,50.654 10.346,52 12,52 L34,52 C35.654,52 37,50.654 37,49 L37,44 L43,44 C44.654,44 46,42.654 46,41 L46,14 L46,13 L46,9 C46,7.697 45.163,6.588 44,6.175 Z M42,5 L42,6 L25.438,5.996 C25.008,5.996 24.628,5.722 24.492,5.313 L24.054,4 L41,4 C41.552,4 42,4.448 42,5 Z M5,4 L7.946,4 L7.506,5.318 C7.37,5.726 6.99,6 6.561,6 L4,6 L4,5 C4,4.448 4.448,4 5,4 Z M2,9 C2,8.448 2.448,8 3,8 L6.561,8 C7.854,8 8.997,7.176 9.404,5.95 L10.495,2.681 C10.63,2.274 11.01,2 11.439,2 L20.56,2 C20.99,2 21.371,2.273 21.506,2.682 L22.594,5.946 C23.003,7.173 24.146,7.997 25.438,7.997 L43,8 C43.552,8 44,8.448 44,9 L44,12 L2,12 L2,9 Z M35,46.149 L30.178,40.122 C29.645,39.456 28.851,39.047 27.999,39 C27.148,38.948 26.314,39.272 25.712,39.875 L21.083,44.504 L19.175,42.119 C18.643,41.454 17.85,41.046 16.999,40.999 C16.155,40.954 15.315,41.27 14.715,41.872 L11,45.586 L11,31 C11,30.448 11.448,30 12,30 L34,30 C34.552,30 35,30.448 35,31 L35,46.149 Z M11,49 L11,48.414 L16.129,43.285 C16.332,43.083 16.612,42.986 16.889,42.995 C17.177,43.011 17.434,43.143 17.614,43.368 L22.919,50 L12,50 C11.448,50 11,49.552 11,49 Z M34,50 L25.481,50 L22.34,46.074 L27.126,41.288 C27.329,41.085 27.609,40.985 27.889,40.996 C28.178,41.012 28.436,41.145 28.617,41.371 L34.952,49.291 C34.826,49.7 34.45,50 34,50 Z M44,41 C44,41.552 43.552,42 43,42 L37,42 L37,31 C37,29.346 35.654,28 34,28 L12,28 C10.346,28 9,29.346 9,31 L9,42 L3,42 C2.448,42 2,41.552 2,41 L2,14 L44,14 L44,41 Z" id="Shape" fill="#47545E"></path>
                <rect id="Rectangle-path" fill="#24B6FF" x="11" y="24" width="24" height="2"></rect>
            </g>
        </g>
    </g>
</svg>