<svg xmlns="http://www.w3.org/2000/svg" viewBox="0 0 593 228.89"><defs><style>.cls-1{fill:#aaa;}.cls-2{fill:#fff;stroke:#c9c9c9;stroke-width:5px;}.cls-2,.cls-8{stroke-miterlimit:10;}.cls-3{fill:#c6c6c6;}.cls-4{fill:#d1d1d1;}.cls-5{fill:#8c8c8c;}.cls-6{opacity:0.31;}.cls-7{fill:#c1c1c1;}.cls-8{fill:none;stroke:#fff;}.cls-9{opacity:0.61;}.cls-10{fill:#848484;}</style></defs><title>Asset 5</title><g id="Layer_2" data-name="Layer 2"><g id="Layer_1-2" data-name="Layer 1"><polygon class="cls-1" points="140.27 148.25 207.81 91.4 207.81 112.68 138.6 181.9 140.27 148.25"/><rect class="cls-2" x="206.62" y="186.79" width="176.45" height="39.6" rx="5.04" ry="5.04"/><polygon class="cls-1" points="445.33 148.25 377.78 91.4 377.78 112.68 447 181.9 445.33 148.25"/><polygon class="cls-3" points="208 113.1 378 113.1 418.5 153.02 159.6 160.5 208 113.1"/><rect class="cls-2" x="138" y="146.01" width="307.81" height="62.74" rx="7.21" ry="7.21"/><polygon class="cls-4" points="207.81 91.4 207.58 112.72 378.19 112.72 378.19 91.12 207.81 91.4"/><rect class="cls-2" x="206.62" y="2.5" width="176.45" height="39.6" rx="5.04" ry="5.04"/><rect class="cls-2" x="206.62" y="53.47" width="176.45" height="39.6" rx="5.04" ry="5.04"/><circle class="cls-5" cx="294.08" cy="176.46" r="6.92"/><circle class="cls-5" cx="292.88" cy="22.5" r="5.88"/><circle class="cls-5" cx="292.88" cy="69.55" r="5.88"/><g class="cls-6"><path class="cls-7" d="M0,83.1l37-24s4,36,50,41l-33,27S13,133.1,0,83.1Z"/><line class="cls-8" x1="34" y1="72.1" x2="9.5" y2="87.6"/><line class="cls-8" x1="39" y1="82.1" x2="15.5" y2="98.6"/><line class="cls-8" x1="47" y1="92.1" x2="23.5" y2="109.6"/><line class="cls-8" x1="59" y1="99.1" x2="35.5" y2="116.6"/><line class="cls-8" x1="70" y1="104.1" x2="48.5" y2="120.6"/></g><g class="cls-9"><path class="cls-10" d="M501,120.1s44.8-11.8,70,33l22-34c-7-12.14-18-41-67.8-31.66Z"/><line class="cls-8" x1="529.5" y1="92.6" x2="514.5" y2="113.6"/><line class="cls-8" x1="545.5" y1="92.6" x2="530.5" y2="114.6"/><line class="cls-8" x1="560.5" y1="96.6" x2="546.5" y2="117.6"/><line class="cls-8" x1="575.5" y1="107.6" x2="561.5" y2="129.6"/></g></g></g></svg>